<?xml version="1.0" encoding="utf-8"?>
<!-- Generator: Adobe Illustrator 24.1.2, SVG Export Plug-In . SVG Version: 6.00 Build 0)  -->
<svg version="1.1" xmlns="http://www.w3.org/2000/svg" xmlns:xlink="http://www.w3.org/1999/xlink" x="0px" y="0px"
	 viewBox="0 0 2553.25 326.39" style="enable-background:new 0 0 2553.25 326.39;" xml:space="preserve">
<style type="text/css">
	.st0{fill:#C9AA2D;}
	.st1{fill:none;stroke:#C9AA2D;stroke-width:4.2193;stroke-miterlimit:10;}
	.st2{fill:none;stroke:#C9AA2D;stroke-width:10.5483;stroke-miterlimit:10;}
	.st3{fill:none;stroke:#C9AA2D;stroke-width:2.6371;stroke-miterlimit:10;}
	.st4{display:none;opacity:0.6;}
	.st5{display:inline;fill:#C9AA2D;}
	.st6{fill:none;stroke:url(#SVGID_1_);stroke-width:6.3879;stroke-miterlimit:10;}
	.st7{fill:url(#SVGID_2_);}
	.st8{fill:url(#SVGID_3_);}
	.st9{fill:none;stroke:#C8912B;stroke-width:4.2808;stroke-miterlimit:10;}
	.st10{fill:#C7902B;}
	.st11{fill:none;stroke:#C7902B;stroke-width:2.8539;stroke-miterlimit:10;}
	.st12{fill:none;stroke:url(#SVGID_4_);stroke-width:6.8631;stroke-miterlimit:10;}
	.st13{fill:url(#SVGID_5_);}
	.st14{fill:none;stroke:url(#SVGID_6_);stroke-width:6.8631;stroke-miterlimit:10;}
	.st15{fill:none;stroke:url(#SVGID_7_);stroke-width:6.8631;stroke-miterlimit:10;}
	.st16{fill:url(#SVGID_8_);}
	.st17{fill:url(#SVGID_9_);}
	.st18{fill:url(#SVGID_10_);}
	.st19{fill:url(#SVGID_11_);}
	.st20{fill:none;stroke:#C8912B;stroke-width:4.1178;stroke-miterlimit:10;}
	.st21{fill:none;stroke:url(#SVGID_12_);stroke-width:6.8631;stroke-miterlimit:10;}
	.st22{fill:none;stroke:#C7902B;stroke-width:2.7452;stroke-miterlimit:10;}
</style>
<g id="logotipo_1">
	<g>
		<g>
			<g>
				<path class="st0" d="M547.91,133.39c0,9-1.19,17.47-3.58,25.43c-2.38,7.96-5.76,15.18-10.12,21.65
					c-4.36,6.48-9.63,12.14-15.79,17c-6.16,4.86-13.02,8.68-20.58,11.47l41.02,32.52h-50.87l-33.73-27.12h-34.54
					c-11.6,0-22.35-2-32.25-6.01c-9.9-4-18.44-9.6-25.64-16.8c-7.2-7.19-12.84-15.74-16.93-25.64c-4.09-9.89-6.14-20.73-6.14-32.52
					V96.42c0-11.69,2.04-22.51,6.14-32.45c4.09-9.94,9.74-18.48,16.93-25.64c7.2-7.15,15.74-12.75,25.64-16.8
					c9.89-4.05,20.64-6.07,32.25-6.07h47.49c11.6,0,22.33,2.02,32.18,6.07s18.37,9.65,25.57,16.8c7.2,7.15,12.82,15.7,16.87,25.64
					c4.05,9.94,6.07,20.76,6.07,32.45V133.39z M512.83,96.42c0-6.92-1.1-13.2-3.31-18.82c-2.21-5.62-5.31-10.43-9.31-14.44
					c-4-4-8.82-7.1-14.44-9.31c-5.62-2.2-11.81-3.31-18.55-3.31h-47.49c-6.84,0-13.07,1.1-18.69,3.31
					c-5.62,2.2-10.46,5.31-14.5,9.31c-4.05,4-7.17,8.82-9.38,14.44c-2.21,5.62-3.31,11.9-3.31,18.82v36.97
					c0,6.93,1.1,13.2,3.31,18.82c2.2,5.62,5.33,10.44,9.38,14.44s8.88,7.11,14.5,9.31c5.62,2.21,11.85,3.31,18.69,3.31h47.22
					c6.83,0,13.06-1.1,18.69-3.31c5.62-2.2,10.46-5.31,14.5-9.31c4.05-4,7.17-8.82,9.38-14.44c2.2-5.62,3.31-11.89,3.31-18.82V96.42
					z"/>
				<path class="st0" d="M772.16,193.97c0,2.52-0.45,4.86-1.35,7.02c-0.9,2.16-2.16,4.03-3.78,5.6c-1.62,1.57-3.51,2.81-5.67,3.71
					c-2.16,0.9-4.45,1.35-6.88,1.35h-79.07c-7.47,0-15.02-0.81-22.67-2.43c-7.65-1.62-15.04-4.12-22.2-7.49
					c-7.15-3.38-13.88-7.67-20.17-12.89c-6.3-5.22-11.81-11.4-16.53-18.55c-4.72-7.15-8.43-15.33-11.13-24.56
					c-2.7-9.22-4.05-19.5-4.05-30.83V18.17h35.08v96.74c0,9.9,1.37,18.26,4.12,25.1c2.74,6.84,6.23,12.55,10.46,17.14
					c4.23,4.59,8.86,8.19,13.9,10.79c5.04,2.61,9.83,4.54,14.37,5.8c4.54,1.26,8.54,2.05,12.01,2.36c3.46,0.32,5.73,0.47,6.81,0.47
					h61.66V18.17h35.08V193.97z"/>
				<path class="st0" d="M987.77,211.65H861.21c-4.86,0-10.17-0.85-15.92-2.56c-5.76-1.71-11.09-4.52-15.99-8.43
					c-4.9-3.92-9-8.99-12.28-15.25c-3.29-6.25-4.92-13.92-4.92-23V35.84c0-2.43,0.45-4.72,1.35-6.88c0.9-2.16,2.14-4.05,3.71-5.67
					c1.57-1.62,3.44-2.88,5.6-3.78c2.16-0.9,4.5-1.35,7.02-1.35h158v35.08H847.17V162.4c0,4.59,1.21,8.1,3.64,10.52
					c2.43,2.43,5.98,3.64,10.66,3.64h126.29V211.65z M971.98,132.58H861.21V97.23h110.77V132.58z"/>
				<path class="st0" d="M1214.98,83.2c0,8.01-0.99,15.16-2.97,21.45c-1.98,6.3-4.65,11.85-8.03,16.66
					c-3.37,4.81-7.27,8.93-11.67,12.34c-4.41,3.42-9.02,6.23-13.83,8.43c-4.81,2.2-9.67,3.8-14.57,4.79
					c-4.9,0.99-9.51,1.48-13.83,1.48l73.26,63.28h-54.24l-73.13-63.28h-25.23v-35.08h79.34c4.41-0.36,8.43-1.28,12.08-2.76
					c3.64-1.49,6.79-3.49,9.44-6.01c2.65-2.52,4.7-5.55,6.14-9.11c1.44-3.55,2.16-7.62,2.16-12.21V61.07c0-1.98-0.25-3.49-0.74-4.52
					c-0.5-1.03-1.13-1.8-1.89-2.3c-0.77-0.49-1.57-0.78-2.43-0.88c-0.86-0.09-1.64-0.13-2.36-0.13h-115.77v158.4h-35.08V35.84
					c0-2.43,0.45-4.72,1.35-6.88c0.9-2.16,2.14-4.05,3.71-5.67c1.57-1.62,3.44-2.88,5.6-3.78c2.16-0.9,4.5-1.35,7.02-1.35h133.17
					c7.83,0,14.44,1.42,19.83,4.25c5.4,2.84,9.78,6.39,13.16,10.66c3.37,4.27,5.8,8.88,7.29,13.83c1.48,4.95,2.23,9.58,2.23,13.9
					V83.2z"/>
				<path class="st0" d="M1423.57,53.25h-77.31v158.4h-35.08V53.25h-77.45V18.17h189.84V53.25z"/>
				<path class="st0" d="M1642.69,83.2c0,8.01-0.99,15.16-2.97,21.45c-1.98,6.3-4.65,11.85-8.03,16.66
					c-3.37,4.81-7.27,8.93-11.67,12.34c-4.41,3.42-9.02,6.23-13.83,8.43c-4.81,2.2-9.67,3.8-14.57,4.79
					c-4.9,0.99-9.51,1.48-13.83,1.48l73.26,63.28h-54.24l-73.13-63.28h-25.23v-35.08h79.34c4.41-0.36,8.43-1.28,12.08-2.76
					c3.64-1.49,6.79-3.49,9.44-6.01c2.65-2.52,4.7-5.55,6.14-9.11c1.44-3.55,2.16-7.62,2.16-12.21V61.07c0-1.98-0.25-3.49-0.74-4.52
					c-0.5-1.03-1.13-1.8-1.89-2.3c-0.76-0.49-1.57-0.78-2.43-0.88c-0.86-0.09-1.64-0.13-2.36-0.13h-115.77v158.4h-35.08V35.84
					c0-2.43,0.45-4.72,1.35-6.88c0.9-2.16,2.14-4.05,3.71-5.67c1.57-1.62,3.44-2.88,5.6-3.78c2.16-0.9,4.5-1.35,7.02-1.35h133.17
					c7.83,0,14.44,1.42,19.83,4.25c5.4,2.84,9.78,6.39,13.16,10.66c3.37,4.27,5.8,8.88,7.29,13.83c1.48,4.95,2.23,9.58,2.23,13.9
					V83.2z"/>
				<path class="st0" d="M1880.97,133.39c0,11.78-2.02,22.62-6.07,32.52c-4.05,9.9-9.67,18.44-16.87,25.64
					c-7.2,7.2-15.72,12.8-25.57,16.8c-9.85,4-20.58,6.01-32.18,6.01h-47.49c-11.6,0-22.35-2-32.25-6.01c-9.9-4-18.44-9.6-25.64-16.8
					c-7.2-7.19-12.84-15.74-16.93-25.64c-4.09-9.89-6.14-20.73-6.14-32.52V96.42c0-11.69,2.04-22.51,6.14-32.45
					c4.09-9.94,9.74-18.48,16.93-25.64c7.2-7.15,15.74-12.75,25.64-16.8c9.89-4.05,20.64-6.07,32.25-6.07h47.49
					c11.6,0,22.33,2.02,32.18,6.07c9.85,4.05,18.37,9.65,25.57,16.8c7.19,7.15,12.82,15.7,16.87,25.64
					c4.05,9.94,6.07,20.76,6.07,32.45V133.39z M1845.89,96.42c0-6.92-1.1-13.2-3.31-18.82c-2.2-5.62-5.31-10.43-9.31-14.44
					c-4-4-8.82-7.1-14.44-9.31c-5.62-2.2-11.8-3.31-18.55-3.31h-47.49c-6.84,0-13.07,1.1-18.69,3.31c-5.62,2.2-10.46,5.31-14.5,9.31
					c-4.05,4-7.17,8.82-9.38,14.44c-2.21,5.62-3.31,11.9-3.31,18.82v36.97c0,6.93,1.1,13.2,3.31,18.82
					c2.2,5.62,5.33,10.44,9.38,14.44s8.88,7.11,14.5,9.31c5.62,2.21,11.85,3.31,18.69,3.31h47.22c6.84,0,13.06-1.1,18.69-3.31
					c5.62-2.2,10.46-5.31,14.5-9.31s7.17-8.82,9.38-14.44c2.2-5.62,3.31-11.89,3.31-18.82V96.42z"/>
				<path class="st0" d="M2088.88,211.65h-126.56c-3.24,0-6.73-0.38-10.46-1.15c-3.73-0.76-7.42-1.96-11.06-3.57
					c-3.64-1.62-7.13-3.71-10.46-6.27c-3.33-2.57-6.28-5.67-8.84-9.31c-2.57-3.64-4.61-7.87-6.14-12.68
					c-1.53-4.81-2.29-10.23-2.29-16.26V67.41c0-3.24,0.38-6.72,1.15-10.46c0.76-3.73,1.96-7.42,3.57-11.06
					c1.62-3.64,3.73-7.13,6.34-10.46c2.61-3.33,5.74-6.28,9.38-8.84c3.65-2.57,7.85-4.61,12.62-6.14
					c4.77-1.53,10.16-2.29,16.19-2.29h126.56v35.08h-126.56c-4.59,0-8.1,1.21-10.52,3.64c-2.43,2.43-3.64,6.03-3.64,10.79v94.72
					c0,4.5,1.23,7.98,3.71,10.46c2.47,2.47,5.96,3.71,10.46,3.71h126.56V211.65z"/>
				<path class="st0" d="M2311.92,211.65h-35.08v-47.49h-123.32v47.49h-35.08v-96.74c0-14.12,2.43-27.12,7.29-38.99
					c4.86-11.87,11.6-22.08,20.24-30.63c8.64-8.54,18.84-15.2,30.63-19.97c11.78-4.77,24.65-7.15,38.59-7.15h79.07
					c2.43,0,4.72,0.45,6.88,1.35c2.16,0.9,4.05,2.16,5.67,3.78c1.62,1.62,2.88,3.51,3.78,5.67c0.9,2.16,1.35,4.45,1.35,6.88V211.65z
					 M2153.51,129.08h123.32V53.25h-61.66c-1.08,0-3.35,0.16-6.81,0.47c-3.46,0.32-7.47,1.1-12.01,2.36
					c-4.54,1.26-9.33,3.19-14.37,5.8c-5.04,2.61-9.67,6.21-13.9,10.79c-4.23,4.59-7.71,10.32-10.46,17.2
					c-2.75,6.88-4.12,15.23-4.12,25.03V129.08z"/>
				<path class="st0" d="M2546.01,83.2c0,8.01-0.99,15.16-2.97,21.45c-1.98,6.3-4.66,11.85-8.03,16.66
					c-3.38,4.81-7.27,8.93-11.67,12.34c-4.41,3.42-9.02,6.23-13.83,8.43s-9.67,3.8-14.57,4.79c-4.9,0.99-9.51,1.48-13.83,1.48
					l73.26,63.28h-54.24l-73.13-63.28h-25.23v-35.08h79.34c4.41-0.36,8.43-1.28,12.08-2.76c3.64-1.49,6.79-3.49,9.44-6.01
					c2.65-2.52,4.7-5.55,6.14-9.11c1.44-3.55,2.16-7.62,2.16-12.21V61.07c0-1.98-0.25-3.49-0.74-4.52c-0.5-1.03-1.13-1.8-1.89-2.3
					c-0.77-0.49-1.58-0.78-2.43-0.88c-0.86-0.09-1.64-0.13-2.36-0.13h-115.77v158.4h-35.08V35.84c0-2.43,0.45-4.72,1.35-6.88
					c0.9-2.16,2.14-4.05,3.71-5.67c1.57-1.62,3.44-2.88,5.6-3.78c2.16-0.9,4.5-1.35,7.02-1.35h133.17c7.83,0,14.44,1.42,19.83,4.25
					c5.4,2.84,9.78,6.39,13.15,10.66c3.38,4.27,5.8,8.88,7.29,13.83c1.49,4.95,2.23,9.58,2.23,13.9V83.2z"/>
			</g>
		</g>
		<g>
			<g>
				<path class="st0" d="M244.18,42.79l7.78,57.51c0.6,4.44-4.05,8.37-8.12,6.87l-52.75-19.48c-3.84-1.42-4.29-6.69-0.81-9.63
					l44.97-38.03C238.72,37.08,243.61,38.6,244.18,42.79z"/>
				<path class="st0" d="M21.63,122.39c4.06,0.03,5.37-73.76,93.01-81.91c47.59-4.43,89.6,26.89,89.6,26.89l18.78-17.01
					c0,0-44.38-38.04-107.4-33.37C23.96,23.78,4.69,122.28,21.63,122.39z"/>
			</g>
			<g>
				<path class="st0" d="M23.91,214.15l-7.78-57.51c-0.6-4.44,4.05-8.37,8.12-6.87l52.75,19.48c3.84,1.42,4.29,6.69,0.81,9.63
					l-44.97,38.03C29.37,219.85,24.48,218.34,23.91,214.15z"/>
				<path class="st0" d="M246.46,134.55c-4.06-0.03-5.37,73.76-93.01,81.91c-47.59,4.43-89.6-26.89-89.6-26.89l-18.78,17.01
					c0,0,44.38,38.04,107.4,33.37C244.13,233.16,263.4,134.66,246.46,134.55z"/>
			</g>
		</g>
	</g>
	<g>
		<path class="st0" d="M599.39,322.26c-6.31,0-11.6-1.4-15.88-4.2c-4.28-2.8-7.51-6.68-9.68-11.64c-2.17-4.96-3.26-10.68-3.26-17.16
			s1.08-12.2,3.26-17.16c2.17-4.96,5.4-8.84,9.68-11.64c4.28-2.8,9.58-4.2,15.88-4.2s11.59,1.4,15.86,4.2
			c4.27,2.8,7.49,6.68,9.66,11.64c2.17,4.96,3.26,10.68,3.26,17.16s-1.09,12.2-3.26,17.16c-2.17,4.96-5.39,8.84-9.66,11.64
			C610.98,320.86,605.69,322.26,599.39,322.26z M599.39,317.29c5.19,0.03,9.52-1.15,12.98-3.54c3.46-2.39,6.06-5.7,7.79-9.92
			c1.73-4.22,2.6-9.08,2.6-14.56s-0.87-10.34-2.6-14.56c-1.73-4.22-4.33-7.52-7.79-9.9c-3.46-2.38-7.79-3.56-12.98-3.56
			c-5.19-0.03-9.51,1.14-12.96,3.52c-3.45,2.38-6.04,5.68-7.77,9.92c-1.73,4.24-2.63,9.1-2.68,14.59s0.79,10.33,2.53,14.54
			s4.36,7.51,7.85,9.9C589.85,316.09,594.2,317.29,599.39,317.29z"/>
		<path class="st0" d="M650.96,320.94v-63.36h5.1l36.7,54.34v-54.34h5.1v63.36h-5.1l-36.7-54.43v54.43H650.96z"/>
		<path class="st0" d="M724.17,320.94v-63.36h18.88c0.73,0,1.93,0.02,3.59,0.04c1.66,0.03,3.23,0.16,4.73,0.4
			c4.75,0.65,8.7,2.43,11.84,5.35c3.14,2.92,5.48,6.62,7.04,11.09c1.55,4.47,2.33,9.41,2.33,14.81c0,5.43-0.78,10.38-2.33,14.85
			c-1.55,4.47-3.9,8.16-7.04,11.07c-3.14,2.9-7.08,4.68-11.84,5.32c-1.5,0.21-3.09,0.33-4.77,0.37c-1.69,0.04-2.87,0.07-3.54,0.07
			H724.17z M729.49,315.97h13.55c1.32,0,2.68-0.04,4.09-0.11s2.61-0.2,3.61-0.37c3.93-0.7,7.1-2.27,9.5-4.69
			c2.4-2.42,4.16-5.49,5.26-9.2s1.65-7.82,1.65-12.34c0-4.55-0.56-8.67-1.67-12.39c-1.11-3.71-2.88-6.78-5.28-9.2
			c-2.41-2.42-5.56-3.97-9.46-4.64c-1-0.18-2.22-0.3-3.67-0.37c-1.45-0.07-2.79-0.11-4.03-0.11h-13.55V315.97z"/>
		<path class="st0" d="M796.37,320.94v-63.36h39.16v4.93h-34.1v24.07h28.82v4.93h-28.82v24.51h34.1v4.93H796.37z"/>
		<path class="st0" d="M916.98,322.26c-6.31,0-11.6-1.4-15.88-4.2c-4.28-2.8-7.51-6.68-9.68-11.64c-2.17-4.96-3.26-10.68-3.26-17.16
			s1.08-12.2,3.26-17.16c2.17-4.96,5.4-8.84,9.68-11.64c4.28-2.8,9.58-4.2,15.88-4.2s11.59,1.4,15.86,4.2
			c4.27,2.8,7.49,6.68,9.66,11.64c2.17,4.96,3.26,10.68,3.26,17.16s-1.09,12.2-3.26,17.16c-2.17,4.96-5.39,8.84-9.66,11.64
			C928.57,320.86,923.28,322.26,916.98,322.26z M916.98,317.29c5.19,0.03,9.52-1.15,12.98-3.54c3.46-2.39,6.06-5.7,7.79-9.92
			c1.73-4.22,2.6-9.08,2.6-14.56s-0.87-10.34-2.6-14.56c-1.73-4.22-4.33-7.52-7.79-9.9c-3.46-2.38-7.79-3.56-12.98-3.56
			c-5.19-0.03-9.51,1.14-12.96,3.52c-3.45,2.38-6.04,5.68-7.77,9.92c-1.73,4.24-2.63,9.1-2.68,14.59s0.79,10.33,2.53,14.54
			s4.36,7.51,7.85,9.9C907.44,316.09,911.78,317.29,916.98,317.29z"/>
		<path class="st0" d="M1016.85,320.94l-22.44-63.36h5.37l20.15,57.02l20.28-57.02h5.37l-22.44,63.36H1016.85z"/>
		<path class="st0" d="M1055.62,320.94l22.44-63.36h6.29l22.44,63.36h-5.37l-21.56-60.72h2.55l-21.43,60.72H1055.62z M1064.9,305.01
			v-4.8h32.56v4.8H1064.9z"/>
		<path class="st0" d="M1129.58,320.94v-63.36h5.06v58.43h30.8v4.93H1129.58z"/>
		<path class="st0" d="M1210.45,322.26c-6.31,0-11.6-1.4-15.88-4.2c-4.28-2.8-7.51-6.68-9.68-11.64
			c-2.17-4.96-3.26-10.68-3.26-17.16s1.08-12.2,3.26-17.16c2.17-4.96,5.4-8.84,9.68-11.64c4.28-2.8,9.58-4.2,15.88-4.2
			s11.59,1.4,15.86,4.2c4.27,2.8,7.49,6.68,9.66,11.64c2.17,4.96,3.26,10.68,3.26,17.16s-1.09,12.2-3.26,17.16
			c-2.17,4.96-5.39,8.84-9.66,11.64C1222.05,320.86,1216.76,322.26,1210.45,322.26z M1210.45,317.29c5.19,0.03,9.52-1.15,12.98-3.54
			c3.46-2.39,6.06-5.7,7.79-9.92c1.73-4.22,2.6-9.08,2.6-14.56s-0.87-10.34-2.6-14.56c-1.73-4.22-4.33-7.52-7.79-9.9
			c-3.46-2.38-7.79-3.56-12.98-3.56c-5.19-0.03-9.51,1.14-12.96,3.52c-3.45,2.38-6.04,5.68-7.77,9.92
			c-1.73,4.24-2.63,9.1-2.68,14.59s0.79,10.33,2.53,14.54s4.36,7.51,7.85,9.9C1200.92,316.09,1205.26,317.29,1210.45,317.29z"/>
		<path class="st0" d="M1262.02,320.94v-63.36h23.89c0.62,0,1.28,0.02,2,0.07s1.47,0.14,2.27,0.29c3.17,0.5,5.89,1.64,8.16,3.41
			c2.27,1.77,4.01,4,5.21,6.69c1.2,2.68,1.8,5.64,1.8,8.87c0,4.66-1.25,8.73-3.74,12.19c-2.49,3.46-5.97,5.66-10.43,6.6l-1.45,0.57
			h-22.66v24.68H1262.02z M1267.08,291.29h18.74c0.53,0,1.14-0.03,1.83-0.09c0.69-0.06,1.39-0.15,2.09-0.26
			c2.29-0.47,4.19-1.4,5.72-2.79s2.67-3.07,3.43-5.04c0.76-1.96,1.14-4.03,1.14-6.2s-0.38-4.23-1.14-6.18
			c-0.76-1.95-1.91-3.62-3.43-5.02c-1.53-1.39-3.43-2.32-5.72-2.79c-0.7-0.15-1.4-0.25-2.09-0.31c-0.69-0.06-1.3-0.09-1.83-0.09
			h-18.74V291.29z M1301.05,320.94l-12.5-25.78l4.71-2.38l13.73,28.16H1301.05z"/>
		<path class="st0" d="M1383.77,322.26c-4.34,0-8.25-0.72-11.73-2.16c-3.48-1.44-6.35-3.48-8.62-6.12
			c-2.27-2.64-3.79-5.78-4.55-9.42l5.19-0.88c1.08,4.22,3.41,7.55,6.97,9.99c3.56,2.43,7.85,3.65,12.87,3.65
			c3.4,0,6.41-0.54,9.02-1.63c2.61-1.08,4.65-2.62,6.12-4.6c1.47-1.98,2.2-4.29,2.2-6.93c0-1.91-0.34-3.5-1.03-4.8
			c-0.69-1.29-1.58-2.35-2.66-3.19c-1.09-0.84-2.24-1.51-3.48-2.02c-1.23-0.51-2.39-0.93-3.48-1.25l-15.93-4.75
			c-2.11-0.62-4-1.39-5.65-2.31s-3.05-1.99-4.18-3.21c-1.13-1.22-2-2.6-2.6-4.16s-0.9-3.29-0.9-5.19c0-3.4,0.91-6.38,2.73-8.93
			c1.82-2.55,4.32-4.54,7.5-5.96s6.84-2.13,10.98-2.13c4.16,0.03,7.9,0.8,11.22,2.31c3.31,1.51,6.04,3.65,8.16,6.4
			c2.13,2.76,3.5,6.03,4.11,9.81l-5.24,0.92c-0.41-2.9-1.46-5.44-3.15-7.61s-3.83-3.86-6.45-5.06c-2.61-1.2-5.52-1.8-8.71-1.8
			c-3.08-0.03-5.8,0.48-8.16,1.54c-2.36,1.06-4.22,2.48-5.57,4.27c-1.35,1.79-2.02,3.81-2.02,6.07c0,2.35,0.64,4.22,1.91,5.61
			c1.28,1.39,2.85,2.49,4.71,3.28c1.86,0.79,3.64,1.44,5.35,1.94l12.76,3.78c1.2,0.35,2.64,0.85,4.31,1.5
			c1.67,0.65,3.31,1.56,4.93,2.75c1.61,1.19,2.96,2.76,4.03,4.71c1.07,1.95,1.61,4.39,1.61,7.33c0,2.85-0.54,5.4-1.63,7.66
			c-1.09,2.26-2.64,4.17-4.66,5.74s-4.42,2.77-7.17,3.61C1390.12,321.84,1387.08,322.26,1383.77,322.26z"/>
		<path class="st0" d="M1429.26,320.94v-63.36h39.16v4.93h-34.1v24.07h28.82v4.93h-28.82v24.51h34.1v4.93H1429.26z"/>
		<path class="st0" d="M1549.86,322.26c-6.31,0-11.6-1.4-15.88-4.2c-4.28-2.8-7.51-6.68-9.68-11.64
			c-2.17-4.96-3.26-10.68-3.26-17.16s1.08-12.2,3.26-17.16c2.17-4.96,5.4-8.84,9.68-11.64c4.28-2.8,9.58-4.2,15.88-4.2
			c7.36,0,13.34,1.91,17.93,5.72c4.59,3.81,7.71,8.92,9.35,15.31l-5.24,1.28c-1.35-5.31-3.87-9.53-7.55-12.65
			c-3.68-3.12-8.51-4.69-14.5-4.69c-5.19,0-9.51,1.19-12.96,3.56c-3.45,2.38-6.04,5.68-7.79,9.9c-1.75,4.22-2.63,9.08-2.66,14.56
			c-0.06,5.49,0.79,10.33,2.53,14.54s4.36,7.51,7.85,9.9c3.49,2.39,7.83,3.59,13.02,3.59c5.98,0,10.82-1.57,14.5-4.71
			c3.68-3.14,6.2-7.35,7.55-12.63l5.24,1.28c-1.64,6.4-4.76,11.5-9.35,15.31C1563.2,320.35,1557.23,322.26,1549.86,322.26z"/>
		<path class="st0" d="M1626.12,322.26c-6.31,0-11.6-1.4-15.88-4.2c-4.28-2.8-7.51-6.68-9.68-11.64
			c-2.17-4.96-3.26-10.68-3.26-17.16s1.08-12.2,3.26-17.16c2.17-4.96,5.4-8.84,9.68-11.64c4.28-2.8,9.58-4.2,15.88-4.2
			s11.59,1.4,15.86,4.2c4.27,2.8,7.49,6.68,9.66,11.64c2.17,4.96,3.26,10.68,3.26,17.16s-1.09,12.2-3.26,17.16
			c-2.17,4.96-5.39,8.84-9.66,11.64C1637.71,320.86,1632.42,322.26,1626.12,322.26z M1626.12,317.29c5.19,0.03,9.52-1.15,12.98-3.54
			c3.46-2.39,6.06-5.7,7.79-9.92c1.73-4.22,2.6-9.08,2.6-14.56s-0.87-10.34-2.6-14.56c-1.73-4.22-4.33-7.52-7.79-9.9
			c-3.46-2.38-7.79-3.56-12.98-3.56c-5.19-0.03-9.51,1.14-12.96,3.52c-3.45,2.38-6.04,5.68-7.77,9.92
			c-1.73,4.24-2.63,9.1-2.68,14.59s0.79,10.33,2.53,14.54s4.36,7.51,7.85,9.9C1616.58,316.09,1620.92,317.29,1626.12,317.29z"/>
		<path class="st0" d="M1677.68,320.94v-63.36h5.1l36.7,54.34v-54.34h5.1v63.36h-5.1l-36.7-54.43v54.43H1677.68z"/>
		<path class="st0" d="M1750.9,320.94v-63.36h39.16v4.93h-34.1v24.07h28.82v4.93h-28.82v24.51h34.1v4.93H1750.9z"/>
		<path class="st0" d="M1837.71,322.26c-6.31,0-11.6-1.4-15.88-4.2c-4.28-2.8-7.51-6.68-9.68-11.64
			c-2.17-4.96-3.26-10.68-3.26-17.16s1.08-12.2,3.26-17.16c2.17-4.96,5.4-8.84,9.68-11.64c4.28-2.8,9.58-4.2,15.88-4.2
			c7.36,0,13.34,1.91,17.93,5.72c4.59,3.81,7.71,8.92,9.35,15.31l-5.24,1.28c-1.35-5.31-3.87-9.53-7.55-12.65
			c-3.68-3.12-8.51-4.69-14.5-4.69c-5.19,0-9.51,1.19-12.96,3.56c-3.45,2.38-6.04,5.68-7.79,9.9c-1.75,4.22-2.63,9.08-2.66,14.56
			c-0.06,5.49,0.79,10.33,2.53,14.54s4.36,7.51,7.85,9.9c3.49,2.39,7.83,3.59,13.02,3.59c5.98,0,10.82-1.57,14.5-4.71
			c3.68-3.14,6.2-7.35,7.55-12.63l5.24,1.28c-1.64,6.4-4.76,11.5-9.35,15.31C1851.05,320.35,1845.07,322.26,1837.71,322.26z"/>
		<path class="st0" d="M1906.08,320.94v-58.43h-22.7v-4.93h50.47v4.93h-22.7v58.43H1906.08z"/>
		<path class="st0" d="M1948.72,320.94l22.44-63.36h6.29l22.44,63.36h-5.37l-21.56-60.72h2.55l-21.43,60.72H1948.72z M1958,305.01
			v-4.8h32.56v4.8H1958z"/>
	</g>
</g>
<g id="logotipo_2">
</g>
<g id="logotipo_3">
</g>
</svg>
